<?xml version="1.0" encoding="utf-8"?>
<!-- Generator: Adobe Illustrator 19.0.1, SVG Export Plug-In . SVG Version: 6.00 Build 0)  -->
<svg version="1.1" id="Layer_1" xmlns="http://www.w3.org/2000/svg" xmlns:xlink="http://www.w3.org/1999/xlink" x="0px" y="0px"
	 viewBox="0 0 47.5555534 82" style="enable-background:new 0 0 47.5555534 82;" xml:space="preserve">
<style type="text/css">
	.st0{fill:#717683;stroke:#323743;stroke-width:2;stroke-miterlimit:10;}
	.st1{fill:#323743;}
</style>
<path class="st0" d="M46.5555534,74.4722214c0,0,0,6.5277786-22.7777767,6.5277786S1,74.4722214,1,74.4722214V6.1388884
	C1,6.1388884,1,1,23.7777767,1s22.7777767,5.1388884,22.7777767,5.1388884V74.4722214z"/>
<g>
	<path class="st1" d="M6.0194454,74.8015289c0,0,0.0219269,0.153183,0.2072296,0.3464966
		c0.1744843,0.2011566,0.507431,0.4163818,0.9593964,0.6191864c0.4466248,0.2142487,1.0296021,0.3923645,1.7044067,0.5527191
		c0.6755524,0.1593475,1.449173,0.2960968,2.2975464,0.4181213c0.8443909,0.1384735,1.7750854,0.2136078,2.7541046,0.2980347
		c0.982254,0.0725861,2.0186615,0.125946,3.093399,0.171524c1.0720062,0.0693512,2.1867981,0.0530701,3.3148346,0.098587
		c1.1286316,0.0090942,2.275177,0.0183258,3.4217224,0.0275726c1.1519928-0.0094452,2.3039703-0.0188751,3.4379425-0.0281525
		c1.1261749-0.0474243,2.2368774-0.0294189,3.3099213-0.0991364c1.0747528-0.0453186,2.1109905-0.1004791,3.0933056-0.1720276
		c0.9789886-0.0842285,1.9096985-0.1591797,2.7540894-0.2974854c0.8483887-0.1217651,1.6217499-0.2594452,2.2974396-0.4180603
		c0.6748199-0.1601257,1.2578125-0.3380432,1.7044678-0.5521393c0.4520111-0.2026367,0.7848816-0.4178772,0.9595032-0.618866
		c0.1853943-0.1931915,0.2073517-0.3463745,0.2073517-0.3463745s-0.0005798,0.155426-0.1648407,0.3801575
		c-0.1558228,0.2281799-0.4629211,0.5088348-0.9117126,0.7574921c-0.4408112,0.2666473-1.0178223,0.5060272-1.690155,0.7370605
		c-0.672348,0.2328033-1.4471741,0.4513397-2.3036194,0.6148834c-0.8531189,0.192215-1.7873077,0.3239441-2.7748871,0.4686432
		c-0.9888153,0.1316071-2.0337048,0.2593842-3.117979,0.3256989c-2.170166,0.181427-4.4903564,0.2214355-6.789444,0.2476349
		c-2.3245239-0.0265045-4.6311951-0.067749-6.8007507-0.2487793c-1.0842896-0.06604-2.1289978-0.1956177-3.1178741-0.3261871
		c-0.9875793-0.1444855-1.9217682-0.2760468-2.7748718-0.4680939c-0.8564758-0.1632996-1.6310425-0.3827515-2.3035126-0.6148071
		c-0.672348-0.2308197-1.2493896-0.4700165-1.6902313-0.736496c-0.448822-0.2485046-0.7558594-0.5291595-0.9118042-0.7571564
		C6.020071,74.9569397,6.0194454,74.8015289,6.0194454,74.8015289z"/>
</g>
<g>
	<path class="st1" d="M41.5361061,7.2167664c0,0-0.0219269-0.1531982-0.2072296-0.3464966
		c-0.1744843-0.2011566-0.507431-0.4163971-0.9593964-0.6191864c-0.4466248-0.2142487-1.0296021-0.3923645-1.7044067-0.5527191
		c-0.6755524-0.1593475-1.449173-0.2960968-2.2975464-0.4181213c-0.8443909-0.1384735-1.7750854-0.2136078-2.7541046-0.2980347
		c-0.982254-0.0726013-2.0186596-0.125946-3.0933971-0.1715393c-1.0720062-0.0693359-2.1867981-0.0530548-3.3148346-0.0985718
		c-1.1305084-0.0090942-2.2789612-0.0183105-3.4274139-0.0275421c-1.1500702,0.0094299-2.3001556,0.0188446-3.432251,0.0281219
		c-1.1261749,0.0474091-2.2368774,0.0294189-3.3099213,0.0991364c-1.0747528,0.0453033-2.1109924,0.1004791-3.0933075,0.1720123
		c-0.9789886,0.0842438-1.9096985,0.1591949-2.7540894,0.2975006C10.339819,5.4030914,9.5664577,5.5407562,8.8907681,5.6993866
		C8.2159481,5.8595123,7.6329556,6.0374298,7.1863003,6.2515259C6.7342892,6.4541626,6.4014187,6.6694031,6.2267971,6.8703766
		C6.0414028,7.0635834,6.0194454,7.2167664,6.0194454,7.2167664s0.0005798-0.155426,0.1648407-0.3801575
		C6.3401089,6.608429,6.6472073,6.327774,7.0959988,6.0791168C7.5368099,5.8124695,8.113821,5.5730896,8.7861538,5.342041
		c0.672348-0.2327881,1.4471741-0.4513245,2.3036194-0.6148682c0.8531189-0.192215,1.7873077-0.3239594,2.7748871-0.4686432
		c0.9888153-0.1316071,2.0337067-0.2593842,3.117981-0.3256989c2.172699-0.1814423,4.4846802-0.221405,6.7951355-0.2476807
		c2.3131561,0.0265808,4.6280365,0.0677795,6.7950592,0.2488251c1.0842896,0.06604,2.1289959,0.1956177,3.1178722,0.3261719
		c0.9875793,0.1445007,1.9217682,0.276062,2.7748718,0.4681091c0.8564758,0.1632996,1.6310425,0.3827515,2.3035126,0.6148071
		c0.672348,0.2308197,1.2493896,0.4700012,1.6902313,0.7364807c0.448822,0.2485046,0.7558594,0.5291748,0.9118042,0.7571716
		C41.5354805,7.0613556,41.5361061,7.2167664,41.5361061,7.2167664z"/>
</g>
</svg>
